<?xml version="1.0" encoding="utf-8"?>
<!DOCTYPE svg PUBLIC "-//W3C//DTD SVG 1.1//EN" "http://www.w3.org/Graphics/SVG/1.1/DTD/svg11.dtd">
<svg version="1.1" xmlns="http://www.w3.org/2000/svg" xmlns:xlink="http://www.w3.org/1999/xlink" width="14" height="14" viewBox="0 0 14 14">
<path d="M11.95 2.051c-1.267-1.267-3.017-2.051-4.95-2.051-3.001 0-5.56 1.888-6.556 4.542l1.639 0.615c0.747-1.99 2.666-3.406 4.917-3.406 1.45 0 2.762 0.588 3.712 1.538l-1.962 1.962h5.25v-5.25l-2.050 2.051zM7 12.25c-1.45 0-2.762-0.588-3.712-1.538l1.962-1.962h-5.25v5.25l2.051-2.051c1.267 1.267 3.016 2.051 4.949 2.051 3.001 0 5.56-1.888 6.556-4.542l-1.639-0.615c-0.747 1.99-2.666 3.406-4.917 3.406z" fill="#666"></path>
</svg>
