<?xml version="1.0" encoding="utf-8"?>
<!-- Generated by IcoMoon.io -->
<!DOCTYPE svg PUBLIC "-//W3C//DTD SVG 1.1//EN" "http://www.w3.org/Graphics/SVG/1.1/DTD/svg11.dtd">
<svg version="1.1" xmlns="http://www.w3.org/2000/svg" xmlns:xlink="http://www.w3.org/1999/xlink" width="10" height="10" viewBox="0 0 10 10">
<g>
	<line stroke-width="1" x1="" y1="" x2="" y2="" stroke="#449FDB" opacity=""></line>
</g>
	<path d="M8.535 1.465c-0.905-0.905-2.155-1.465-3.535-1.465-2.143 0-3.972 1.349-4.683 3.244l1.171 0.439c0.533-1.421 1.904-2.433 3.512-2.433 1.036 0 1.973 0.42 2.651 1.099l-1.401 1.401h3.75v-3.75l-1.465 1.465zM5 8.75c-1.036 0-1.973-0.42-2.651-1.099l1.401-1.401h-3.75v3.75l1.465-1.465c0.905 0.905 2.154 1.465 3.535 1.465 2.143 0 3.972-1.349 4.683-3.244l-1.171-0.439c-0.533 1.421-1.904 2.433-3.512 2.433z" fill="#000000"></path>
</svg>
