<?xml version="1.0" encoding="utf-8"?>
<!-- Generated by IcoMoon.io -->
<!DOCTYPE svg PUBLIC "-//W3C//DTD SVG 1.1//EN" "http://www.w3.org/Graphics/SVG/1.1/DTD/svg11.dtd">
<svg version="1.1" xmlns="http://www.w3.org/2000/svg" xmlns:xlink="http://www.w3.org/1999/xlink" width="10" height="10" viewBox="0 0 10 10">
<g>
	<line stroke-width="1" x1="" y1="" x2="" y2="" stroke="#449FDB" opacity=""></line>
</g>
	<path d="M9.688 3.75h-3.438v-3.438c0-0.173-0.14-0.313-0.313-0.313h-1.875c-0.173 0-0.313 0.14-0.313 0.313v3.438h-3.438c-0.173 0-0.313 0.14-0.313 0.313v1.875c0 0.173 0.14 0.313 0.313 0.313h3.438v3.438c0 0.173 0.14 0.313 0.313 0.313h1.875c0.173 0 0.313-0.14 0.313-0.313v-3.438h3.438c0.173 0 0.313-0.14 0.313-0.313v-1.875c0-0.173-0.14-0.313-0.313-0.313z" fill="#000000"></path>
</svg>
