<?xml version="1.0" encoding="utf-8"?>
<!DOCTYPE svg PUBLIC "-//W3C//DTD SVG 1.1//EN" "http://www.w3.org/Graphics/SVG/1.1/DTD/svg11.dtd">
<svg version="1.1" xmlns="http://www.w3.org/2000/svg" xmlns:xlink="http://www.w3.org/1999/xlink" width="14" height="14" viewBox="0 0 14 14">
	<path d="M7.724 7.687c-0.216-0.125-0.514-0.125-0.758-0.125h-0.799v1.646h0.734c0.272 0 0.617 0.019 0.851-0.145 0.216-0.145 0.337-0.428 0.337-0.699 0-0.251-0.15-0.552-0.365-0.678zM7.423 6.282c0.178-0.135 0.271-0.377 0.271-0.599 0-0.242-0.112-0.473-0.317-0.599-0.216-0.125-0.608-0.097-0.861-0.097h-0.348v1.449h0.46c0.263-0.001 0.571 0.019 0.795-0.155zM11.357 0.28h-8.716c-1.304 0-2.362 1.058-2.362 2.362v8.714c0 1.305 1.058 2.363 2.362 2.363h8.715c1.305 0 2.362-1.058 2.362-2.362v-8.714c0.001-1.305-1.057-2.362-2.362-2.362zM7.365 10.435h-2.745v-6.627h3c0.869 0 1.671 0.553 1.671 1.529 0 0.753-0.421 1.269-0.957 1.43v0.019c0.796 0.164 1.364 0.596 1.364 1.639 0 0.965-0.657 2.010-2.332 2.010z" fill="#fff"></path>
</svg>
