<?xml version="1.0" encoding="utf-8"?>
<!-- Generated by IcoMoon.io -->
<!DOCTYPE svg PUBLIC "-//W3C//DTD SVG 1.1//EN" "http://www.w3.org/Graphics/SVG/1.1/DTD/svg11.dtd">
<svg version="1.1" xmlns="http://www.w3.org/2000/svg" xmlns:xlink="http://www.w3.org/1999/xlink" width="10" height="10" viewBox="0 0 10 10">
<g>
	<line stroke-width="1" x1="" y1="" x2="" y2="" stroke="#449FDB" opacity=""></line>
</g>
	<path d="M5.518 5.49c-0.154-0.090-0.367-0.090-0.542-0.090h-0.57v1.176h0.524c0.194 0 0.441 0.013 0.608-0.103 0.154-0.103 0.24-0.306 0.24-0.499 0-0.18-0.107-0.394-0.26-0.484zM5.302 4.487c0.127-0.097 0.193-0.27 0.193-0.428 0-0.172-0.080-0.338-0.227-0.428-0.154-0.090-0.435-0.069-0.615-0.069h-0.248v1.035h0.328c0.188-0 0.408 0.013 0.568-0.11zM8.113 0.2h-6.225c-0.932 0-1.687 0.755-1.687 1.688v6.225c0 0.932 0.755 1.688 1.687 1.688h6.225c0.932 0 1.688-0.755 1.688-1.688v-6.225c0-0.932-0.755-1.688-1.687-1.688zM5.26 7.453h-1.961v-4.733h2.143c0.62 0 1.193 0.395 1.193 1.092 0 0.538-0.3 0.907-0.683 1.022v0.013c0.568 0.117 0.974 0.426 0.974 1.17 0 0.689-0.47 1.436-1.665 1.436z" fill="#000000"></path>
</svg>
